HIERARCHY
ROOT SpineBase
{
  OFFSET 0.000000 0.000000 0.000000
  CHANNELS 6 Xposition Yposition Zposition Zrotation Xrotation Yrotation
  JOINT SpineMid
  {
    OFFSET -0.000000 31.691320 0.000000
    CHANNELS 3 Zrotation Xrotation Yrotation
    JOINT SpineShoulder
    {
      OFFSET 0.287103 23.524776 -0.787571
      CHANNELS 3 Zrotation Xrotation Yrotation
      JOINT Neck
      {
        OFFSET 0.164919 7.774215 -0.600502
        CHANNELS 3 Zrotation Xrotation Yrotation
        JOINT Head
        {
          OFFSET -4.028189 14.204864 -1.820686
          CHANNELS 3 Zrotation Xrotation Yrotation
          End Site
          {
            OFFSET 0 0 0
          }
        }
      }
      JOINT ShoulderLeft
      {
        OFFSET -16.528885 -5.382461 6.337878
        CHANNELS 3 Zrotation Xrotation Yrotation
        JOINT ElbowLeft
        {
          OFFSET -7.011697 -26.147042 4.267664
          CHANNELS 3 Zrotation Xrotation Yrotation
          JOINT WristLeft
          {
            OFFSET -13.117725 -11.919600 -18.250432
            CHANNELS 3 Zrotation Xrotation Yrotation
            JOINT HandLeft
            {
              OFFSET -2.978370 -2.486554 -7.136445
              CHANNELS 3 Zrotation Xrotation Yrotation
              JOINT HandTipLeft
              {
                OFFSET -4.123620 -1.373705 -10.702914
                CHANNELS 3 Zrotation Xrotation Yrotation
                End Site
                {
                  OFFSET 0 0 0
                }
              }
              JOINT ThumbLeft
              {
                OFFSET 7.226791 -2.379094 -4.929508
                CHANNELS 3 Zrotation Xrotation Yrotation
                End Site
                {
                  OFFSET 0 0 0
                }
              }
            }
          }
        }
      }
      JOINT ShoulderRight
      {
        OFFSET 14.064923 -3.675783 -9.093619
        CHANNELS 3 Zrotation Xrotation Yrotation
        JOINT ElbowRight
        {
          OFFSET 7.654353 -22.973558 -1.903749
          CHANNELS 3 Zrotation Xrotation Yrotation
          JOINT WristRight
          {
            OFFSET -4.827211 -14.211913 -19.245632
            CHANNELS 3 Zrotation Xrotation Yrotation
            JOINT HandRight
            {
              OFFSET -5.495212 -1.971596 -6.417465
              CHANNELS 3 Zrotation Xrotation Yrotation
              JOINT HandTipRight
              {
                OFFSET -3.621653 -2.110259 -3.892506
                CHANNELS 3 Zrotation Xrotation Yrotation
                End Site
                {
                  OFFSET 0 0 0
                }
              }
              JOINT ThumbRight
              {
                OFFSET 0.504634 -0.731955 -4.022235
                CHANNELS 3 Zrotation Xrotation Yrotation
                End Site
                {
                  OFFSET 0 0 0
                }
              }
            }
          }
        }
      }
    }
  }
  JOINT HipLeft
  {
    OFFSET -6.818004 -0.427446 -0.627421
    CHANNELS 3 Zrotation Xrotation Yrotation
    JOINT KneeLeft
    {
      OFFSET -0.480008 -33.792871 4.755673
      CHANNELS 3 Zrotation Xrotation Yrotation
      JOINT AnkleLeft
      {
        OFFSET 3.311459 -35.328207 7.117820
        CHANNELS 3 Zrotation Xrotation Yrotation
        JOINT FootLeft
        {
          OFFSET -1.772743 -8.046365 -6.501959
          CHANNELS 3 Zrotation Xrotation Yrotation
          End Site
          {
            OFFSET 0 0 0
          }
        }
      }
    }
  }
  JOINT HipRight
  {
    OFFSET 7.766409 2.285854 -6.795204
    CHANNELS 3 Zrotation Xrotation Yrotation
    JOINT KneeRight
    {
      OFFSET 4.212427 -30.912993 -0.965124
      CHANNELS 3 Zrotation Xrotation Yrotation
      JOINT AnkleRight
      {
        OFFSET 2.275103 -39.848561 7.711458
        CHANNELS 3 Zrotation Xrotation Yrotation
        JOINT FootRight
        {
          OFFSET -3.643314 -5.497072 -9.809189
          CHANNELS 3 Zrotation Xrotation Yrotation
          End Site
          {
            OFFSET 0 0 0
          }
        }
      }
    }
  }
}
MOTION
Frames: 6
Frame Time: 0.033333
-40.905301 79.121016 338.012790 0.000000 0.000000 22.923619 -0.000000 0.000000 -22.923619 -0.000000 0.000000 0.000000 -0.000000 0.000000 0.000000 0.000000 0.000000 0.000000 -0.000000 0.000000 0.000000 -0.000000 0.000000 0.000000 -0.000000 0.000000 0.000000 -0.000000 0.000000 0.000000 0.000000 0.000000 0.000000 0.000000 0.000000 0.000000 -0.000000 0.000000 0.000000 -0.000000 0.000000 0.000000 -0.000000 0.000000 0.000000 -0.000000 0.000000 0.000000 0.000000 0.000000 0.000000 0.000000 0.000000 0.000000 -0.000000 0.000000 -22.923619 -0.000000 0.000000 0.000000 -0.000000 0.000000 0.000000 0.000000 0.000000 0.000000 -0.000000 0.000000 -22.923619 -0.000000 0.000000 0.000000 -0.000000 0.000000 0.000000 0.000000 0.000000 0.000000
-40.891595 79.161298 337.959539 -0.058534 0.068730 22.747855 0.027405 -0.086018 -22.747799 -0.000000 0.000000 0.000000 -0.000000 0.000000 0.000000 0.000000 0.000000 0.000000 -0.000000 0.000000 0.000000 2.413218 -1.416163 -2.199414 -5.442074 6.684449 3.596427 2.818571 -5.151123 -3.374461 0.000000 0.000000 0.000000 0.000000 0.000000 0.000000 -0.000000 0.000000 0.000000 -0.000000 0.000000 0.000000 0.518946 -0.705691 0.290444 -0.086987 1.671086 -2.707644 0.000000 0.000000 0.000000 0.000000 0.000000 0.000000 0.027405 -0.086018 -22.747799 -0.000000 0.000000 0.000000 0.104860 -2.593575 0.498357 0.000000 0.000000 0.000000 0.027405 -0.086018 -22.747799 -0.000000 0.000000 0.000000 -0.219305 1.027031 -0.282528 0.000000 0.000000 0.000000
-40.881337 79.200017 337.910542 -0.124841 0.138967 22.599440 0.061852 -0.176270 -22.599193 -0.000000 0.000000 0.000000 -0.000000 0.000000 0.000000 0.000000 0.000000 0.000000 -0.000000 0.000000 0.000000 4.096580 -2.540187 -3.655005 -9.352162 10.776857 6.121571 4.614771 -8.253811 -6.242474 0.000000 0.000000 0.000000 0.000000 0.000000 0.000000 -0.000000 0.000000 0.000000 -0.000000 0.000000 0.000000 0.945385 -1.291290 0.566416 -0.090479 2.960488 -4.897870 0.000000 0.000000 0.000000 0.000000 0.000000 0.000000 0.061852 -0.176270 -22.599193 -0.000000 0.000000 0.000000 0.014680 -4.247005 0.953364 0.000000 0.000000 0.000000 0.061852 -0.176270 -22.599193 -0.000000 0.000000 0.000000 -0.456308 2.039347 -0.511780 0.000000 0.000000 0.000000
-40.874527 79.237172 337.865798 -0.198939 0.210705 22.478059 0.103267 -0.270757 -22.477450 -0.000000 0.000000 0.000000 -0.000000 0.000000 0.000000 0.000000 0.000000 0.000000 -0.000000 0.000000 0.000000 5.168679 -3.367369 -4.482678 -11.874400 13.290967 7.605087 5.785390 -10.085076 -8.733158 0.000000 0.000000 0.000000 0.000000 0.000000 0.000000 -0.000000 0.000000 0.000000 -0.000000 0.000000 0.000000 1.269282 -1.746289 0.821427 -0.035335 3.852179 -6.532092 0.000000 0.000000 0.000000 0.000000 0.000000 0.000000 0.103267 -0.270757 -22.477450 -0.000000 0.000000 0.000000 -0.289297 -4.916699 1.351311 0.000000 0.000000 0.000000 0.103267 -0.270757 -22.477450 -0.000000 0.000000 0.000000 -0.711742 3.038452 -0.689830 0.000000 0.000000 0.000000
-40.871166 79.272762 337.825308 -0.280842 0.283943 22.383440 0.151560 -0.369493 -22.382255 -0.000000 0.000000 0.000000 -0.000000 0.000000 0.000000 0.000000 0.000000 0.000000 -0.000000 0.000000 0.000000 5.706564 -3.906500 -4.755853 -13.126239 14.758018 8.088898 6.496803 -11.083129 -10.730871 0.000000 0.000000 0.000000 0.000000 0.000000 0.000000 -0.000000 0.000000 0.000000 -0.000000 0.000000 0.000000 1.482065 -2.062081 1.049678 0.060930 4.338425 -7.584987 0.000000 0.000000 0.000000 0.000000 0.000000 0.000000 0.151560 -0.369493 -22.382255 -0.000000 0.000000 0.000000 -0.818388 -4.582620 1.690620 0.000000 0.000000 0.000000 0.151560 -0.369493 -22.382255 -0.000000 0.000000 0.000000 -0.986319 4.025694 -0.818473 0.000000 0.000000 0.000000
-40.871253 79.306788 337.789071 -0.370565 0.358673 22.315349 0.206632 -0.472512 -22.313337 -0.000000 0.000000 0.000000 -0.000000 0.000000 0.000000 0.000000 0.000000 0.000000 -0.000000 0.000000 0.000000 5.749772 -4.169280 -4.509675 -13.180351 15.429848 7.590713 6.801021 -11.479141 -12.014272 0.000000 0.000000 0.000000 0.000000 0.000000 0.000000 -0.000000 0.000000 0.000000 -0.000000 0.000000 0.000000 1.576999 -2.232168 1.246399 0.188822 4.416896 -8.042707 0.000000 0.000000 0.000000 0.000000 0.000000 0.000000 0.206632 -0.472512 -22.313337 -0.000000 0.000000 0.000000 -1.575162 -3.243874 1.982332 0.000000 0.000000 0.000000 0.206632 -0.472512 -22.313337 -0.000000 0.000000 0.000000 -1.280740 5.002264 -0.899257 0.000000 0.000000 0.000000
